<mxfile host="Electron" modified="2024-01-22T02:02:15.436Z" agent="Mozilla/5.0 (Windows NT 10.0; Win64; x64) AppleWebKit/537.36 (KHTML, like Gecko) draw.io/22.1.21 Chrome/120.0.6099.109 Electron/28.1.0 Safari/537.36" etag="cqHwUCoC1gEvFewjasvd" version="22.1.21" type="device">
  <diagram name="第 1 页" id="awphx5rW_arG6idFkpRx">
    <mxGraphModel dx="3274" dy="1996" grid="1" gridSize="10" guides="1" tooltips="1" connect="1" arrows="1" fold="1" page="0" pageScale="1" pageWidth="827" pageHeight="1169" math="0" shadow="0">
      <root>
        <mxCell id="0" />
        <mxCell id="1" parent="0" />
        <mxCell id="npu0TX9mwprPv2JEKZqb-7" style="rounded=0;orthogonalLoop=1;jettySize=auto;html=1;entryX=0.5;entryY=0;entryDx=0;entryDy=0;exitX=0.5;exitY=1;exitDx=0;exitDy=0;" edge="1" parent="1" source="2" target="3">
          <mxGeometry relative="1" as="geometry" />
        </mxCell>
        <mxCell id="npu0TX9mwprPv2JEKZqb-11" value="[2,3]&lt;br style=&quot;font-size: 20px;&quot;&gt;[1]" style="edgeLabel;html=1;align=center;verticalAlign=middle;resizable=0;points=[];fontSize=20;" vertex="1" connectable="0" parent="npu0TX9mwprPv2JEKZqb-7">
          <mxGeometry x="0.0767" y="-3" relative="1" as="geometry">
            <mxPoint as="offset" />
          </mxGeometry>
        </mxCell>
        <mxCell id="npu0TX9mwprPv2JEKZqb-17" value="[3]&lt;br&gt;[1,2]" style="edgeLabel;html=1;align=center;verticalAlign=middle;resizable=0;points=[];fontSize=20;" vertex="1" connectable="0" parent="npu0TX9mwprPv2JEKZqb-7">
          <mxGeometry x="0.0767" y="-3" relative="1" as="geometry">
            <mxPoint x="-234" y="195" as="offset" />
          </mxGeometry>
        </mxCell>
        <mxCell id="npu0TX9mwprPv2JEKZqb-18" value="[2]&lt;br&gt;[1,3]" style="edgeLabel;html=1;align=center;verticalAlign=middle;resizable=0;points=[];fontSize=20;" vertex="1" connectable="0" parent="npu0TX9mwprPv2JEKZqb-7">
          <mxGeometry x="0.0767" y="-3" relative="1" as="geometry">
            <mxPoint x="-134" y="195" as="offset" />
          </mxGeometry>
        </mxCell>
        <mxCell id="npu0TX9mwprPv2JEKZqb-19" value="[3]&lt;br&gt;[2,1]" style="edgeLabel;html=1;align=center;verticalAlign=middle;resizable=0;points=[];fontSize=20;" vertex="1" connectable="0" parent="npu0TX9mwprPv2JEKZqb-7">
          <mxGeometry x="0.0767" y="-3" relative="1" as="geometry">
            <mxPoint x="166" y="215" as="offset" />
          </mxGeometry>
        </mxCell>
        <mxCell id="npu0TX9mwprPv2JEKZqb-20" value="[1]&lt;br&gt;[2,3]" style="edgeLabel;html=1;align=center;verticalAlign=middle;resizable=0;points=[];fontSize=20;" vertex="1" connectable="0" parent="npu0TX9mwprPv2JEKZqb-7">
          <mxGeometry x="0.0767" y="-3" relative="1" as="geometry">
            <mxPoint x="256" y="215" as="offset" />
          </mxGeometry>
        </mxCell>
        <mxCell id="npu0TX9mwprPv2JEKZqb-29" value="[2]&lt;br&gt;[3,1]" style="edgeLabel;html=1;align=center;verticalAlign=middle;resizable=0;points=[];fontSize=20;" vertex="1" connectable="0" parent="npu0TX9mwprPv2JEKZqb-7">
          <mxGeometry x="0.0767" y="-3" relative="1" as="geometry">
            <mxPoint x="596" y="175" as="offset" />
          </mxGeometry>
        </mxCell>
        <mxCell id="npu0TX9mwprPv2JEKZqb-30" value="[1]&lt;br&gt;[3,2]" style="edgeLabel;html=1;align=center;verticalAlign=middle;resizable=0;points=[];fontSize=20;" vertex="1" connectable="0" parent="npu0TX9mwprPv2JEKZqb-7">
          <mxGeometry x="0.0767" y="-3" relative="1" as="geometry">
            <mxPoint x="696" y="175" as="offset" />
          </mxGeometry>
        </mxCell>
        <mxCell id="npu0TX9mwprPv2JEKZqb-41" value="[]&lt;br&gt;[1,2,3]" style="edgeLabel;html=1;align=center;verticalAlign=middle;resizable=0;points=[];fontSize=20;" vertex="1" connectable="0" parent="npu0TX9mwprPv2JEKZqb-7">
          <mxGeometry x="0.0767" y="-3" relative="1" as="geometry">
            <mxPoint x="-284" y="415" as="offset" />
          </mxGeometry>
        </mxCell>
        <mxCell id="npu0TX9mwprPv2JEKZqb-43" value="[]&lt;br&gt;[1,3,2]" style="edgeLabel;html=1;align=center;verticalAlign=middle;resizable=0;points=[];fontSize=20;" vertex="1" connectable="0" parent="npu0TX9mwprPv2JEKZqb-7">
          <mxGeometry x="0.0767" y="-3" relative="1" as="geometry">
            <mxPoint x="-84" y="425" as="offset" />
          </mxGeometry>
        </mxCell>
        <mxCell id="npu0TX9mwprPv2JEKZqb-45" value="[]&lt;br&gt;[2,1,3]" style="edgeLabel;html=1;align=center;verticalAlign=middle;resizable=0;points=[];fontSize=20;" vertex="1" connectable="0" parent="npu0TX9mwprPv2JEKZqb-7">
          <mxGeometry x="0.0767" y="-3" relative="1" as="geometry">
            <mxPoint x="116" y="395" as="offset" />
          </mxGeometry>
        </mxCell>
        <mxCell id="npu0TX9mwprPv2JEKZqb-46" value="[]&lt;br&gt;[2,3,1]" style="edgeLabel;html=1;align=center;verticalAlign=middle;resizable=0;points=[];fontSize=20;" vertex="1" connectable="0" parent="npu0TX9mwprPv2JEKZqb-7">
          <mxGeometry x="0.0767" y="-3" relative="1" as="geometry">
            <mxPoint x="316" y="405" as="offset" />
          </mxGeometry>
        </mxCell>
        <mxCell id="npu0TX9mwprPv2JEKZqb-51" value="[]&lt;br&gt;[3,1,2]" style="edgeLabel;html=1;align=center;verticalAlign=middle;resizable=0;points=[];fontSize=20;" vertex="1" connectable="0" parent="npu0TX9mwprPv2JEKZqb-7">
          <mxGeometry x="0.0767" y="-3" relative="1" as="geometry">
            <mxPoint x="546" y="395" as="offset" />
          </mxGeometry>
        </mxCell>
        <mxCell id="npu0TX9mwprPv2JEKZqb-52" value="[]&lt;br&gt;[3,2,1]" style="edgeLabel;html=1;align=center;verticalAlign=middle;resizable=0;points=[];fontSize=20;" vertex="1" connectable="0" parent="npu0TX9mwprPv2JEKZqb-7">
          <mxGeometry x="0.0767" y="-3" relative="1" as="geometry">
            <mxPoint x="766" y="405" as="offset" />
          </mxGeometry>
        </mxCell>
        <mxCell id="npu0TX9mwprPv2JEKZqb-8" value="" style="edgeStyle=orthogonalEdgeStyle;rounded=0;orthogonalLoop=1;jettySize=auto;html=1;" edge="1" parent="1" source="2" target="npu0TX9mwprPv2JEKZqb-3">
          <mxGeometry relative="1" as="geometry" />
        </mxCell>
        <mxCell id="npu0TX9mwprPv2JEKZqb-26" value="[1,3]&lt;br style=&quot;font-size: 20px;&quot;&gt;[2]" style="edgeLabel;html=1;align=center;verticalAlign=middle;resizable=0;points=[];fontSize=20;" vertex="1" connectable="0" parent="npu0TX9mwprPv2JEKZqb-8">
          <mxGeometry x="-0.25" y="-1" relative="1" as="geometry">
            <mxPoint x="1" y="25" as="offset" />
          </mxGeometry>
        </mxCell>
        <mxCell id="npu0TX9mwprPv2JEKZqb-36" value="[1,2]&lt;br style=&quot;font-size: 20px;&quot;&gt;[3]" style="edgeLabel;html=1;align=center;verticalAlign=middle;resizable=0;points=[];fontSize=20;" vertex="1" connectable="0" parent="npu0TX9mwprPv2JEKZqb-8">
          <mxGeometry x="-0.25" y="-1" relative="1" as="geometry">
            <mxPoint x="201" y="-15" as="offset" />
          </mxGeometry>
        </mxCell>
        <mxCell id="npu0TX9mwprPv2JEKZqb-9" style="rounded=0;orthogonalLoop=1;jettySize=auto;html=1;entryX=0;entryY=0;entryDx=0;entryDy=0;exitX=0.5;exitY=1;exitDx=0;exitDy=0;" edge="1" parent="1" source="2" target="npu0TX9mwprPv2JEKZqb-4">
          <mxGeometry relative="1" as="geometry" />
        </mxCell>
        <mxCell id="2" value="" style="ellipse;whiteSpace=wrap;html=1;aspect=fixed;" parent="1" vertex="1">
          <mxGeometry x="-340" y="-380" width="80" height="80" as="geometry" />
        </mxCell>
        <mxCell id="npu0TX9mwprPv2JEKZqb-15" style="rounded=0;orthogonalLoop=1;jettySize=auto;html=1;entryX=0.5;entryY=0;entryDx=0;entryDy=0;exitX=0.5;exitY=1;exitDx=0;exitDy=0;" edge="1" parent="1" source="3" target="npu0TX9mwprPv2JEKZqb-14">
          <mxGeometry relative="1" as="geometry" />
        </mxCell>
        <mxCell id="3" value="" style="ellipse;whiteSpace=wrap;html=1;aspect=fixed;" parent="1" vertex="1">
          <mxGeometry x="-740" y="-230" width="80" height="80" as="geometry" />
        </mxCell>
        <mxCell id="npu0TX9mwprPv2JEKZqb-4" value="" style="ellipse;whiteSpace=wrap;html=1;aspect=fixed;" vertex="1" parent="1">
          <mxGeometry x="90" y="-250" width="80" height="80" as="geometry" />
        </mxCell>
        <mxCell id="npu0TX9mwprPv2JEKZqb-5" value="[1,2,3]&lt;br style=&quot;font-size: 20px;&quot;&gt;[]" style="text;html=1;align=center;verticalAlign=middle;resizable=0;points=[];autosize=1;strokeColor=none;fillColor=none;fontSize=20;" vertex="1" parent="1">
          <mxGeometry x="-340" y="-430" width="80" height="60" as="geometry" />
        </mxCell>
        <mxCell id="npu0TX9mwprPv2JEKZqb-38" value="" style="edgeStyle=orthogonalEdgeStyle;rounded=0;orthogonalLoop=1;jettySize=auto;html=1;" edge="1" parent="1" source="npu0TX9mwprPv2JEKZqb-12" target="npu0TX9mwprPv2JEKZqb-37">
          <mxGeometry relative="1" as="geometry" />
        </mxCell>
        <mxCell id="npu0TX9mwprPv2JEKZqb-12" value="" style="ellipse;whiteSpace=wrap;html=1;aspect=fixed;" vertex="1" parent="1">
          <mxGeometry x="-840" y="30" width="80" height="80" as="geometry" />
        </mxCell>
        <mxCell id="npu0TX9mwprPv2JEKZqb-13" style="rounded=0;orthogonalLoop=1;jettySize=auto;html=1;entryX=0.5;entryY=0;entryDx=0;entryDy=0;exitX=0.5;exitY=1;exitDx=0;exitDy=0;" edge="1" parent="1" source="3" target="npu0TX9mwprPv2JEKZqb-12">
          <mxGeometry relative="1" as="geometry">
            <mxPoint x="-520" y="-159" as="sourcePoint" />
          </mxGeometry>
        </mxCell>
        <mxCell id="npu0TX9mwprPv2JEKZqb-40" value="" style="edgeStyle=orthogonalEdgeStyle;rounded=0;orthogonalLoop=1;jettySize=auto;html=1;" edge="1" parent="1" source="npu0TX9mwprPv2JEKZqb-14" target="npu0TX9mwprPv2JEKZqb-39">
          <mxGeometry relative="1" as="geometry" />
        </mxCell>
        <mxCell id="npu0TX9mwprPv2JEKZqb-14" value="" style="ellipse;whiteSpace=wrap;html=1;aspect=fixed;" vertex="1" parent="1">
          <mxGeometry x="-640" y="30" width="80" height="80" as="geometry" />
        </mxCell>
        <mxCell id="npu0TX9mwprPv2JEKZqb-21" style="rounded=0;orthogonalLoop=1;jettySize=auto;html=1;entryX=0.5;entryY=0;entryDx=0;entryDy=0;exitX=0.5;exitY=1;exitDx=0;exitDy=0;" edge="1" target="npu0TX9mwprPv2JEKZqb-24" parent="1" source="npu0TX9mwprPv2JEKZqb-3">
          <mxGeometry relative="1" as="geometry">
            <mxPoint x="-300" y="-170" as="sourcePoint" />
          </mxGeometry>
        </mxCell>
        <mxCell id="npu0TX9mwprPv2JEKZqb-22" value="" style="ellipse;whiteSpace=wrap;html=1;aspect=fixed;" vertex="1" parent="1">
          <mxGeometry x="-440" y="10" width="80" height="80" as="geometry" />
        </mxCell>
        <mxCell id="npu0TX9mwprPv2JEKZqb-23" style="rounded=0;orthogonalLoop=1;jettySize=auto;html=1;entryX=0.5;entryY=0;entryDx=0;entryDy=0;exitX=0.5;exitY=1;exitDx=0;exitDy=0;" edge="1" target="npu0TX9mwprPv2JEKZqb-22" parent="1" source="npu0TX9mwprPv2JEKZqb-3">
          <mxGeometry relative="1" as="geometry">
            <mxPoint x="-300" y="-170" as="sourcePoint" />
          </mxGeometry>
        </mxCell>
        <mxCell id="npu0TX9mwprPv2JEKZqb-24" value="" style="ellipse;whiteSpace=wrap;html=1;aspect=fixed;" vertex="1" parent="1">
          <mxGeometry x="-240" y="10" width="80" height="80" as="geometry" />
        </mxCell>
        <mxCell id="npu0TX9mwprPv2JEKZqb-25" value="" style="rounded=0;orthogonalLoop=1;jettySize=auto;html=1;entryX=0.5;entryY=0;entryDx=0;entryDy=0;" edge="1" parent="1" target="npu0TX9mwprPv2JEKZqb-3">
          <mxGeometry relative="1" as="geometry">
            <mxPoint x="-300" y="-170" as="sourcePoint" />
            <mxPoint x="-200" y="10" as="targetPoint" />
          </mxGeometry>
        </mxCell>
        <mxCell id="npu0TX9mwprPv2JEKZqb-3" value="" style="ellipse;whiteSpace=wrap;html=1;aspect=fixed;" vertex="1" parent="1">
          <mxGeometry x="-340" y="-180" width="80" height="80" as="geometry" />
        </mxCell>
        <mxCell id="npu0TX9mwprPv2JEKZqb-31" style="rounded=0;orthogonalLoop=1;jettySize=auto;html=1;entryX=0.5;entryY=0;entryDx=0;entryDy=0;exitX=0.5;exitY=1;exitDx=0;exitDy=0;" edge="1" target="npu0TX9mwprPv2JEKZqb-34" parent="1" source="npu0TX9mwprPv2JEKZqb-4">
          <mxGeometry relative="1" as="geometry">
            <mxPoint x="130" y="-170" as="sourcePoint" />
          </mxGeometry>
        </mxCell>
        <mxCell id="npu0TX9mwprPv2JEKZqb-32" value="" style="ellipse;whiteSpace=wrap;html=1;aspect=fixed;" vertex="1" parent="1">
          <mxGeometry x="-10" y="10" width="80" height="80" as="geometry" />
        </mxCell>
        <mxCell id="npu0TX9mwprPv2JEKZqb-33" style="rounded=0;orthogonalLoop=1;jettySize=auto;html=1;entryX=0.5;entryY=0;entryDx=0;entryDy=0;" edge="1" target="npu0TX9mwprPv2JEKZqb-32" parent="1">
          <mxGeometry relative="1" as="geometry">
            <mxPoint x="130" y="-170" as="sourcePoint" />
          </mxGeometry>
        </mxCell>
        <mxCell id="npu0TX9mwprPv2JEKZqb-34" value="" style="ellipse;whiteSpace=wrap;html=1;aspect=fixed;" vertex="1" parent="1">
          <mxGeometry x="210" y="10" width="80" height="80" as="geometry" />
        </mxCell>
        <mxCell id="npu0TX9mwprPv2JEKZqb-37" value="" style="ellipse;whiteSpace=wrap;html=1;aspect=fixed;" vertex="1" parent="1">
          <mxGeometry x="-840" y="200" width="80" height="80" as="geometry" />
        </mxCell>
        <mxCell id="npu0TX9mwprPv2JEKZqb-39" value="" style="ellipse;whiteSpace=wrap;html=1;aspect=fixed;" vertex="1" parent="1">
          <mxGeometry x="-640" y="200" width="80" height="80" as="geometry" />
        </mxCell>
        <mxCell id="npu0TX9mwprPv2JEKZqb-47" value="" style="edgeStyle=orthogonalEdgeStyle;rounded=0;orthogonalLoop=1;jettySize=auto;html=1;" edge="1" target="npu0TX9mwprPv2JEKZqb-49" parent="1">
          <mxGeometry relative="1" as="geometry">
            <mxPoint x="-400" y="90" as="sourcePoint" />
          </mxGeometry>
        </mxCell>
        <mxCell id="npu0TX9mwprPv2JEKZqb-48" value="" style="edgeStyle=orthogonalEdgeStyle;rounded=0;orthogonalLoop=1;jettySize=auto;html=1;" edge="1" target="npu0TX9mwprPv2JEKZqb-50" parent="1">
          <mxGeometry relative="1" as="geometry">
            <mxPoint x="-200" y="90" as="sourcePoint" />
          </mxGeometry>
        </mxCell>
        <mxCell id="npu0TX9mwprPv2JEKZqb-49" value="" style="ellipse;whiteSpace=wrap;html=1;aspect=fixed;" vertex="1" parent="1">
          <mxGeometry x="-440" y="200" width="80" height="80" as="geometry" />
        </mxCell>
        <mxCell id="npu0TX9mwprPv2JEKZqb-50" value="" style="ellipse;whiteSpace=wrap;html=1;aspect=fixed;" vertex="1" parent="1">
          <mxGeometry x="-240" y="200" width="80" height="80" as="geometry" />
        </mxCell>
        <mxCell id="npu0TX9mwprPv2JEKZqb-53" value="" style="edgeStyle=orthogonalEdgeStyle;rounded=0;orthogonalLoop=1;jettySize=auto;html=1;exitX=0.5;exitY=1;exitDx=0;exitDy=0;" edge="1" target="npu0TX9mwprPv2JEKZqb-55" parent="1" source="npu0TX9mwprPv2JEKZqb-32">
          <mxGeometry relative="1" as="geometry">
            <mxPoint x="50" y="90" as="sourcePoint" />
          </mxGeometry>
        </mxCell>
        <mxCell id="npu0TX9mwprPv2JEKZqb-54" value="" style="edgeStyle=orthogonalEdgeStyle;rounded=0;orthogonalLoop=1;jettySize=auto;html=1;" edge="1" target="npu0TX9mwprPv2JEKZqb-56" parent="1">
          <mxGeometry relative="1" as="geometry">
            <mxPoint x="250" y="90" as="sourcePoint" />
          </mxGeometry>
        </mxCell>
        <mxCell id="npu0TX9mwprPv2JEKZqb-55" value="" style="ellipse;whiteSpace=wrap;html=1;aspect=fixed;" vertex="1" parent="1">
          <mxGeometry x="-10" y="190" width="80" height="80" as="geometry" />
        </mxCell>
        <mxCell id="npu0TX9mwprPv2JEKZqb-56" value="" style="ellipse;whiteSpace=wrap;html=1;aspect=fixed;" vertex="1" parent="1">
          <mxGeometry x="210" y="200" width="80" height="80" as="geometry" />
        </mxCell>
      </root>
    </mxGraphModel>
  </diagram>
</mxfile>
